<svg xmlns="http://www.w3.org/2000/svg" width="1440" height="3200" viewBox="0 0 1440 3200" fill="none">
  <defs>
    <linearGradient id="bgGrad" x1="0" y1="0" x2="1440" y2="3200" gradientUnits="userSpaceOnUse">
      <stop offset="0%" stop-color="#050A14" />
      <stop offset="50%" stop-color="#080F1F" />
      <stop offset="100%" stop-color="#050913" />
    </linearGradient>
    <pattern id="grid" width="64" height="64" patternUnits="userSpaceOnUse">
      <path d="M64 0H0V64" stroke="rgba(226,232,240,0.08)" stroke-width="1" />
    </pattern>
    <linearGradient id="ctaGrad" x1="0" y1="0" x2="320" y2="78" gradientUnits="userSpaceOnUse">
      <stop offset="0%" stop-color="#6D28D9" />
      <stop offset="50%" stop-color="#4F46E5" />
      <stop offset="100%" stop-color="#0EA5E9" />
    </linearGradient>
    <linearGradient id="cardStrokeMint" x1="0" y1="0" x2="1200" y2="340" gradientUnits="userSpaceOnUse">
      <stop offset="0%" stop-color="rgba(125,211,252,0.55)" />
      <stop offset="100%" stop-color="rgba(94,234,212,0.35)" />
    </linearGradient>
    <linearGradient id="cardStrokePurple" x1="0" y1="0" x2="1200" y2="340" gradientUnits="userSpaceOnUse">
      <stop offset="0%" stop-color="rgba(167,139,250,0.5)" />
      <stop offset="100%" stop-color="rgba(196,181,253,0.35)" />
    </linearGradient>
    <linearGradient id="micBodyGrad" x1="0" y1="0" x2="1" y2="1">
      <stop offset="0%" stop-color="rgba(125,211,252,0.28)" />
      <stop offset="50%" stop-color="rgba(15,23,42,0.92)" />
      <stop offset="100%" stop-color="rgba(196,181,253,0.28)" />
    </linearGradient>
    <radialGradient id="micHeadGrad" cx="50%" cy="36%" r="62%">
      <stop offset="0%" stop-color="#E2E8F0" stop-opacity="0.95" />
      <stop offset="65%" stop-color="#94A3B8" stop-opacity="0.72" />
      <stop offset="100%" stop-color="#64748B" stop-opacity="0.4" />
    </radialGradient>
    <filter id="softGlow" x="-80%" y="-80%" width="260%" height="260%">
      <feGaussianBlur stdDeviation="14" result="blur" />
      <feColorMatrix in="blur" type="matrix" values="1 0 0 0 0  0 1 0 0 0.85  0 0 1 0 1  0 0 0 0.65 0" />
    </filter>
    <filter id="cardGlow" x="-20%" y="-20%" width="160%" height="160%">
      <feGaussianBlur stdDeviation="7" result="blur" />
      <feColorMatrix in="blur" type="matrix" values="1 0 0 0 0.2  0 1 0 0 0.4  0 0 1 0 0.95  0 0 0 0.3 0" />
    </filter>
  </defs>

  <rect width="1440" height="3200" fill="url(#bgGrad)" />
  <rect width="1440" height="3200" fill="url(#grid)" opacity="0.42" />
  <ellipse cx="720" cy="320" rx="520" ry="300" fill="rgba(56,189,248,0.14)" filter="url(#softGlow)" />
  <ellipse cx="1020" cy="460" rx="320" ry="220" fill="rgba(167,139,250,0.12)" filter="url(#softGlow)" />

  <!-- Hero -->
  <text x="720" y="140" text-anchor="middle" font-family="Pretendard, sans-serif" font-size="74" font-weight="700" fill="#F8FAFC" letter-spacing="-1.6">
    1초. 4개 앱. 0번의 클릭.
  </text>
  <text x="720" y="225" text-anchor="middle" font-family="Pretendard, sans-serif" font-size="74" font-weight="700" fill="#F8FAFC" letter-spacing="-1.6">
    말하면 정리되고, 즉시 꽂힌다.
  </text>
  <text x="720" y="300" text-anchor="middle" font-family="Pretendard, sans-serif" font-size="25" fill="#CBD5E1" letter-spacing="-0.2">
    <tspan x="720" dy="0">카카오톡, 노션, 구글, 네이버 메모까지 이어지는 음성 실행 플랫폼을</tspan>
    <tspan x="720" dy="40">한 번에. 실계정 B2B 보이스 오퍼레이션 엔진.</tspan>
  </text>

  <!-- CTA -->
  <rect x="460" y="390" width="320" height="78" rx="21" fill="url(#ctaGrad)" />
  <rect x="810" y="390" width="320" height="78" rx="21" fill="transparent" stroke="rgba(226,232,240,0.72)" stroke-width="2" />
  <text x="620" y="438" text-anchor="middle" font-family="Pretendard, sans-serif" font-size="24" font-weight="600" fill="#FFFFFF">무료로 시작하기</text>
  <text x="970" y="438" text-anchor="middle" font-family="Pretendard, sans-serif" font-size="24" font-weight="600" fill="#E2E8F0">30초 데모 보기</text>

  <!-- Mic Container -->
  <rect x="370" y="540" width="700" height="460" rx="34" fill="rgba(6,11,20,0.84)" stroke="rgba(226,232,240,0.2)" stroke-width="2" />
  <rect x="394" y="564" width="652" height="412" rx="28" fill="rgba(2,6,14,0.7)" />

  <!-- Side EQ -->
  <g transform="translate(430 710)">
    <rect x="0" y="56" width="14" height="88" rx="8" fill="#7AF7E3" />
    <rect x="24" y="28" width="14" height="116" rx="8" fill="#7C8CFF" />
    <rect x="48" y="46" width="14" height="98" rx="8" fill="#FF82DC" />
    <rect x="72" y="18" width="14" height="126" rx="8" fill="#56CCF2" />
    <rect x="96" y="40" width="14" height="104" rx="8" fill="#C59BFF" />
  </g>
  <g transform="translate(900 710)">
    <rect x="0" y="40" width="14" height="104" rx="8" fill="#C59BFF" />
    <rect x="24" y="18" width="14" height="126" rx="8" fill="#56CCF2" />
    <rect x="48" y="46" width="14" height="98" rx="8" fill="#FF82DC" />
    <rect x="72" y="28" width="14" height="116" rx="8" fill="#7C8CFF" />
    <rect x="96" y="56" width="14" height="88" rx="8" fill="#7AF7E3" />
  </g>

  <!-- Pure SVG Mic -->
  <g transform="translate(610 620)">
    <ellipse cx="110" cy="84" rx="58" ry="70" fill="url(#micHeadGrad)" />
    <rect x="52" y="122" width="116" height="140" rx="52" fill="url(#micBodyGrad)" />
    <rect x="96" y="265" width="28" height="52" rx="10" fill="#94A3B8" fill-opacity="0.62" />
    <ellipse cx="110" cy="328" rx="72" ry="15" fill="#94A3B8" fill-opacity="0.5" />
    <ellipse cx="110" cy="328" rx="56" ry="10" fill="#020617" fill-opacity="0.7" />
    <line x1="68" y1="186" x2="152" y2="186" stroke="#7DD3FC" stroke-opacity="0.22" />
    <line x1="68" y1="204" x2="152" y2="204" stroke="#C4B5FD" stroke-opacity="0.2" />
    <text x="110" y="196" text-anchor="middle" font-family="Pretendard, sans-serif" font-size="24" font-weight="700" fill="#CFFAFE" filter="url(#softGlow)">VOICE</text>
  </g>

  <!-- Trust Bar -->
  <rect x="230" y="1048" width="980" height="74" rx="37" fill="rgba(8,13,22,0.88)" stroke="rgba(255,255,255,0.35)" stroke-width="2" />
  <text x="720" y="1094" text-anchor="middle" font-family="Pretendard, sans-serif" font-size="18" font-weight="600" letter-spacing="5" fill="#E2E8F0">
    MEMO   KAKAO   NOTION   GOOGLE   NAVER   MEMO
  </text>

  <!-- Card 1 -->
  <g transform="translate(120 1188)">
    <rect x="0" y="0" width="1200" height="340" rx="34" fill="rgba(7,12,20,0.86)" stroke="url(#cardStrokeMint)" stroke-width="2" />
    <rect x="0" y="0" width="1200" height="340" rx="34" fill="transparent" filter="url(#cardGlow)" />
    <text x="64" y="110" font-family="Pretendard, sans-serif" font-size="48" font-weight="700" fill="#F8FAFC" letter-spacing="-0.9">
      <tspan x="64" dy="0">타이핑은 끝났다.</tspan>
      <tspan x="64" dy="56">그냥 말하십시오.</tspan>
    </text>
    <text x="64" y="240" font-family="Pretendard, sans-serif" font-size="24" fill="#CBD5E1" letter-spacing="-0.2">
      <tspan x="64" dy="0">회의 직후, 이동 중 떠오른 생각.</tspan>
      <tspan x="64" dy="40">앱 전환이나 타이핑 없이 가장 빠르게 즉시 기록합니다.</tspan>
    </text>
    <rect x="640" y="62" width="500" height="216" rx="24" fill="rgba(8,17,31,0.96)" stroke="rgba(148,163,184,0.28)" />
    <rect x="672" y="106" width="18" height="76" rx="9" fill="#7AF7E3" />
    <rect x="698" y="82" width="18" height="100" rx="9" fill="#7C8CFF" />
    <rect x="724" y="96" width="18" height="86" rx="9" fill="#FF82DC" />
    <rect x="758" y="92" width="350" height="44" rx="12" fill="rgba(30,41,59,0.8)" stroke="rgba(125,211,252,0.26)" />
    <text x="774" y="120" font-family="Pretendard, sans-serif" font-size="19" fill="#D1FAE5">회의 요약 생성 중...</text>
    <rect x="758" y="150" width="350" height="44" rx="12" fill="rgba(30,41,59,0.8)" stroke="rgba(196,181,253,0.26)" />
    <text x="774" y="178" font-family="Pretendard, sans-serif" font-size="19" fill="#E9D5FF">액션 아이템 처리</text>
  </g>

  <!-- Card 2 -->
  <g transform="translate(120 1564)">
    <rect x="0" y="0" width="1200" height="340" rx="34" fill="rgba(7,12,20,0.86)" stroke="url(#cardStrokeMint)" stroke-width="2" />
    <rect x="0" y="0" width="1200" height="340" rx="34" fill="transparent" filter="url(#cardGlow)" />
    <rect x="64" y="62" width="500" height="216" rx="24" fill="rgba(8,17,31,0.96)" stroke="rgba(148,163,184,0.28)" />
    <rect x="96" y="96" width="436" height="18" rx="9" fill="rgba(100,116,139,0.4)" />
    <rect x="96" y="126" width="386" height="18" rx="9" fill="rgba(100,116,139,0.35)" />
    <rect x="96" y="156" width="330" height="18" rx="9" fill="rgba(100,116,139,0.3)" />
    <rect x="96" y="196" width="436" height="30" rx="10" fill="rgba(16,185,129,0.18)" stroke="rgba(110,231,183,0.55)" />
    <text x="114" y="218" font-family="Pretendard, sans-serif" font-size="18" fill="#D1FAE5">✓ 핵심 요약 자동 추출</text>
    <text x="636" y="132" font-family="Pretendard, sans-serif" font-size="48" font-weight="700" fill="#F8FAFC" letter-spacing="-0.9">
      <tspan x="636" dy="0">AI 완벽</tspan>
      <tspan x="636" dy="56">자동 구조화</tspan>
    </text>
    <text x="636" y="240" font-family="Pretendard, sans-serif" font-size="24" fill="#CBD5E1" letter-spacing="-0.2">
      <tspan x="636" dy="0">단순 받아쓰기가 아닙니다.</tspan>
      <tspan x="636" dy="40">발화 의도를 파악해 요약, 할 일, 핵심 액션 아이템을 완벽히 추출합니다.</tspan>
    </text>
  </g>

  <!-- Card 3 -->
  <g transform="translate(120 1940)">
    <rect x="0" y="0" width="1200" height="340" rx="34" fill="rgba(7,12,20,0.86)" stroke="url(#cardStrokePurple)" stroke-width="2" />
    <rect x="0" y="0" width="1200" height="340" rx="34" fill="transparent" filter="url(#cardGlow)" />
    <text x="64" y="110" font-family="Pretendard, sans-serif" font-size="48" font-weight="700" fill="#F8FAFC" letter-spacing="-0.9">
      <tspan x="64" dy="0">원래 쓰던 도구로</tspan>
      <tspan x="64" dy="56">즉시 꽂힌다</tspan>
    </text>
    <text x="64" y="240" font-family="Pretendard, sans-serif" font-size="24" fill="#CBD5E1" letter-spacing="-0.2">
      <tspan x="64" dy="0">새로운 툴을 배울 필요 없습니다.</tspan>
      <tspan x="64" dy="40">카카오톡, 노션, 구글 시트 등 팀이 이미 쓰고 있는 워크플로우에 1초 만에 자동 배포됩니다.</tspan>
    </text>
    <rect x="640" y="62" width="500" height="216" rx="24" fill="rgba(8,17,31,0.96)" stroke="rgba(148,163,184,0.28)" />
    <circle cx="890" cy="170" r="18" fill="rgba(34,211,238,0.26)" stroke="#67E8F9" />
    <line x1="890" y1="170" x2="770" y2="120" stroke="#67E8F9" stroke-width="2" />
    <line x1="890" y1="170" x2="1020" y2="118" stroke="#67E8F9" stroke-width="2" />
    <line x1="890" y1="170" x2="1020" y2="222" stroke="#67E8F9" stroke-width="2" />
    <rect x="728" y="96" width="84" height="32" rx="16" fill="rgba(15,23,42,0.8)" stroke="rgba(226,232,240,0.35)" />
    <rect x="978" y="94" width="98" height="32" rx="16" fill="rgba(15,23,42,0.8)" stroke="rgba(226,232,240,0.35)" />
    <rect x="978" y="206" width="98" height="32" rx="16" fill="rgba(15,23,42,0.8)" stroke="rgba(226,232,240,0.35)" />
    <text x="770" y="118" text-anchor="middle" dominant-baseline="middle" font-family="Pretendard, sans-serif" font-size="14" fill="#E2E8F0">KAKAO</text>
    <text x="1027" y="116" text-anchor="middle" dominant-baseline="middle" font-family="Pretendard, sans-serif" font-size="14" fill="#E2E8F0">NOTION</text>
    <text x="1027" y="228" text-anchor="middle" dominant-baseline="middle" font-family="Pretendard, sans-serif" font-size="14" fill="#E2E8F0">GOOGLE</text>
  </g>

  <!-- Card 4 -->
  <g transform="translate(120 2316)">
    <rect x="0" y="0" width="1200" height="340" rx="34" fill="rgba(7,12,20,0.86)" stroke="url(#cardStrokePurple)" stroke-width="2" />
    <rect x="0" y="0" width="1200" height="340" rx="34" fill="transparent" filter="url(#cardGlow)" />
    <rect x="64" y="62" width="500" height="216" rx="24" fill="rgba(8,17,31,0.96)" stroke="rgba(148,163,184,0.28)" />
    <rect x="98" y="96" width="130" height="34" rx="17" fill="rgba(30,41,59,0.86)" stroke="rgba(226,232,240,0.35)" />
    <rect x="238" y="96" width="130" height="34" rx="17" fill="rgba(30,41,59,0.86)" stroke="rgba(226,232,240,0.35)" />
    <rect x="378" y="96" width="130" height="34" rx="17" fill="rgba(30,41,59,0.86)" stroke="rgba(226,232,240,0.35)" />
    <text x="163" y="118" text-anchor="middle" dominant-baseline="middle" font-family="Pretendard, sans-serif" font-size="14" fill="#E2E8F0">회의 요약</text>
    <text x="303" y="118" text-anchor="middle" dominant-baseline="middle" font-family="Pretendard, sans-serif" font-size="14" fill="#E2E8F0">일정 정리</text>
    <text x="443" y="118" text-anchor="middle" dominant-baseline="middle" font-family="Pretendard, sans-serif" font-size="14" fill="#E2E8F0">이슈 트래커</text>
    <rect x="98" y="172" width="410" height="84" rx="12" fill="rgba(30,41,59,0.76)" stroke="rgba(196,181,253,0.3)" />
    <line x1="120" y1="198" x2="486" y2="198" stroke="rgba(148,163,184,0.45)" />
    <line x1="120" y1="226" x2="452" y2="226" stroke="rgba(148,163,184,0.35)" />
    <text x="636" y="132" font-family="Pretendard, sans-serif" font-size="48" font-weight="700" fill="#F8FAFC" letter-spacing="-0.9">
      <tspan x="636" dy="0">흩어진 메모의</tspan>
      <tspan x="636" dy="56">자산화</tspan>
    </text>
    <text x="636" y="240" font-family="Pretendard, sans-serif" font-size="24" fill="#CBD5E1" letter-spacing="-0.2">
      <tspan x="636" dy="0">개인 카톡방에서 휘발되던 메모가,</tspan>
      <tspan x="636" dy="40">조직 전체가 검색하고 재사용할 수 있는 거대한 데이터 자산으로 축적됩니다.</tspan>
    </text>
  </g>
</svg>
