<svg width="1080" height="1920" viewBox="0 0 1080 1920" fill="none" xmlns="http://www.w3.org/2000/svg">
  <defs>
    <linearGradient id="warmBg" x1="540" y1="0" x2="540" y2="1920" gradientUnits="userSpaceOnUse">
      <stop stop-color="#050505"/>
      <stop offset="1" stop-color="#0B0B0D"/>
    </linearGradient>
    <radialGradient id="warmGlow" cx="0" cy="0" r="1" gradientUnits="userSpaceOnUse" gradientTransform="translate(540 860) rotate(90) scale(420)">
      <stop stop-color="#FFFFFF" stop-opacity="0.2"/>
      <stop offset="0.48" stop-color="#DBE2F0" stop-opacity="0.08"/>
      <stop offset="1" stop-color="#050505" stop-opacity="0"/>
    </radialGradient>
  </defs>

  <rect width="1080" height="1920" fill="url(#warmBg)"/>
  <circle cx="540" cy="860" r="420" fill="url(#warmGlow)"/>

  <rect x="372" y="92" width="336" height="1736" rx="40" stroke="#323236" stroke-dasharray="10 10"/>
  <text x="398" y="132" fill="#8A8A90" font-family="Arial, sans-serif" font-size="22">max-w-md / mx-auto / centered</text>

  <rect x="414" y="176" width="252" height="44" rx="22" fill="#121316" stroke="#FFFFFF" stroke-opacity="0.14"/>
  <text x="450" y="204" fill="#F7F8FA" font-family="Arial, sans-serif" font-size="20">프리미엄 얼리버드</text>

  <rect x="402" y="266" width="276" height="164" rx="24" fill="#101114" stroke="#232429"/>
  <text x="432" y="334" fill="#FFFFFF" font-family="Arial, sans-serif" font-size="32" font-weight="700">말하면 전송됩니다.</text>
  <text x="432" y="382" fill="#FFFFFF" font-family="Arial, sans-serif" font-size="32" font-weight="700">이메일도, 카카오도.</text>
  <text x="432" y="418" fill="#9CA3AF" font-family="Arial, sans-serif" font-size="18">break-keep headline</text>

  <circle cx="540" cy="860" r="208" stroke="#FFFFFF" stroke-opacity="0.12" stroke-dasharray="10 10"/>
  <circle cx="540" cy="860" r="170" stroke="#FFFFFF" stroke-opacity="0.18"/>
  <circle cx="540" cy="860" r="132" fill="#FFFFFF" fill-opacity="0.06" stroke="#FFFFFF" stroke-opacity="0.18"/>
  <circle cx="540" cy="860" r="110" fill="#E9EEF8" fill-opacity="0.08"/>
  <rect x="490" y="792" width="100" height="146" rx="50" fill="#FFFFFF" fill-opacity="0.08" stroke="#FFFFFF" stroke-opacity="0.2"/>
  <rect x="510" y="936" width="60" height="28" rx="14" fill="#FFFFFF" fill-opacity="0.08"/>
  <path d="M520 970H560" stroke="#FFFFFF" stroke-opacity="0.78" stroke-width="8" stroke-linecap="round"/>
  <text x="414" y="1084" fill="#F5F7FA" font-family="Arial, sans-serif" font-size="22">Glass Microphone / backdrop-blur-xl</text>
  <text x="414" y="1118" fill="#9097A3" font-family="Arial, sans-serif" font-size="18">border-white/10 + pulse + 0 0 80px glow</text>

  <rect x="406" y="1186" width="268" height="82" rx="26" fill="#0F1013" stroke="#2A2D34"/>
  <rect x="424" y="1204" width="72" height="46" rx="23" fill="#15171C" stroke="#FFFFFF" stroke-opacity="0.08"/>
  <rect x="504" y="1204" width="72" height="46" rx="23" fill="#15171C" stroke="#FFFFFF" stroke-opacity="0.08"/>
  <rect x="584" y="1204" width="72" height="46" rx="23" fill="#15171C" stroke="#FFFFFF" stroke-opacity="0.08"/>
  <text x="437" y="1233" fill="#F5F7FA" font-family="Arial, sans-serif" font-size="13">소셜</text>
  <text x="521" y="1233" fill="#F5F7FA" font-family="Arial, sans-serif" font-size="13">프루프</text>
  <text x="603" y="1233" fill="#F5F7FA" font-family="Arial, sans-serif" font-size="13">칩</text>

  <rect x="408" y="1328" width="264" height="78" rx="28" fill="#FFFFFF" fill-opacity="0.08" stroke="#FFFFFF" stroke-opacity="0.18"/>
  <text x="450" y="1376" fill="#FFFFFF" font-family="Arial, sans-serif" font-size="24">지금 당장 말해보기</text>

  <text x="78" y="1844" fill="#6F727B" font-family="Arial, sans-serif" font-size="22">High-end SVG blueprint / warm landing / no React code</text>
</svg>
